<svg id="Layer_1" data-name="Layer 1" xmlns="http://www.w3.org/2000/svg" viewBox="0 0 82.376 59.701"><defs><style>.cls-1{fill:#fff;}</style></defs><title>SVG</title><path class="cls-1" d="M11.982,36.448H22.933V56.062H11.982ZM37.419,56.062H26.468V22.309H37.419Zm14.486,0H40.953V9.938H51.9Zm3.187,0V6.75H37.766V19.122H23.281V33.261H8.795v22.8H1.767A1.767,1.767,0,0,0,0,57.829H0A1.767,1.767,0,0,0,1.767,59.6h61.19V56.062Z"/><path class="cls-1" d="M77.175,17.181h5.2L70.106,0,57.835,17.181h5.2V59.6c14.985,1.417,14.139-12.024,14.139-12.024ZM69.062,50.2H65.7V46.838h3.363Zm0-6.726H65.7V40.112h3.363Zm0-6.726H65.7V17.09l3.363-.006Z"/></svg>