<svg id="Layer_1" data-name="Layer 1" xmlns="http://www.w3.org/2000/svg" viewBox="0 0 49.716 54.392"><defs><style>.cls-1{fill:#237e6f;}</style></defs><title>SVG</title><path class="cls-1" d="M49.466,10.8,40.686.378A1.06,1.06,0,0,0,39.873,0H12.949A5.331,5.331,0,0,0,7.624,5.325v5.147H5.146a1.5,1.5,0,0,0-1.5,1.5V23.745a1.5,1.5,0,0,0,1.5,1.5H7.624v8.288H4.512a.753.753,0,0,0-.751.75v11.26H.9A.841.841,0,0,0,.272,47L8.039,54.15a.946.946,0,0,0,1.265,0L17.07,47a.841.841,0,0,0-.632-1.451H13.581V34.284a.753.753,0,0,0-.75-.75H9.751V25.246H30.966a1.5,1.5,0,0,0,1.5-1.5V11.974a1.5,1.5,0,0,0-1.5-1.5H9.751V5.325a3.2,3.2,0,0,1,3.2-3.2H36.411V12.266a2.131,2.131,0,0,0,2.129,2.129h9.05V43.413a3.2,3.2,0,0,1-3.2,3.2H22.38a1.063,1.063,0,1,0,0,2.127H44.391a5.331,5.331,0,0,0,5.325-5.325V11.481A1.063,1.063,0,0,0,49.466,10.8Zm-28.1,2.39h3.905v1.342H22.846V17.36h1.906V18.7H22.846V22.58H21.37Zm-5.474,0H18.23c1.49,0,2.2.805,2.2,2.321v4.751c0,1.516-.711,2.322-2.2,2.322H15.9Zm-5.058,0h2.174c1.49,0,2.2.805,2.2,2.321v1.221c0,1.516-.711,2.322-2.2,2.322h-.7V22.58H10.837Z"/><path class="cls-1" d="M13.736,16.823V15.414c0-.685-.255-.886-.725-.886h-.7v3.18h.7C13.481,17.709,13.736,17.507,13.736,16.823Z"/><path class="cls-1" d="M18.955,20.325V15.441c0-.685-.282-.913-.752-.913h-.832v6.71H18.2C18.673,21.238,18.955,21.01,18.955,20.325Z"/></svg>